<?xml version="1.0" encoding="utf-8"?>
<!-- Generator: Adobe Illustrator 28.0.0, SVG Export Plug-In . SVG Version: 6.00 Build 0)  -->
<svg version="1.1" id="Livello_1" xmlns="http://www.w3.org/2000/svg" xmlns:xlink="http://www.w3.org/1999/xlink" x="0px" y="0px"
	 viewBox="0 0 134 60" style="enable-background:new 0 0 134 60;" xml:space="preserve">
<style type="text/css">
	.st0{fill:#FFFFFF;}
</style>
<path class="st0" d="M98.5,0c11,0,19.6,4.9,26,14.6s9.6,23,9.6,40h-29.2c-0.6-3.4-1.9-6.2-3.8-8.3s-4.7-3.1-8.3-3.1
	c-3.3,0-6.8,0.9-10.6,2.6c-4.2,1.9-8.3,3.9-12.4,5.9c-4.4,2.2-9.3,4.2-14.7,5.8C49.7,59.2,43.8,60,37.4,60
	C25.8,60,16.7,55.1,10,45.3S0,22.3,0,5.5h29.2c0.6,3.3,2.1,6.1,4.3,8.1c2.2,2.1,5.2,3.1,8.9,3.1c3.1,0,6.5-0.8,10.2-2.5
	c4.2-1.9,8.4-3.9,12.5-5.9c4.6-2.3,9.7-4.2,15.3-5.9C86,0.8,92,0,98.5,0z"/>
</svg>
